# xmcd
#
# Track frame offsets: 
#        150
#        16229
#        28359
#        42472
#        59343
#        76533
#        94836
#        111392
#        130863
#        147899
#        164281
#        178766
#
# Disc length: 2697 seconds
#
# Revision: 12
# Processed by: cddbd v1.5.2PL0 Copyright (c) Steve Scherf et al.
# Submitted via: ExactAudioCopyFreeDBPlugin 1.0
#
DISCID=9f0a870c
DTITLE=Shania Twain - For the love of him
DYEAR=1999
DGENRE=Pop
TTITLE0=For The Love Of Him
TTITLE1=Bite My Lip
TTITLE2=Wild And Wicked
TTITLE3=Send It With Love
TTITLE4=(Don't Gimme That) Once Over
TTITLE5=Hate To Love
TTITLE6=LUV Eyes
TTITLE7=I Lost My Heart When I Found You
TTITLE8=The Rhythm Made Me Do It
TTITLE9=Two Hearts One Love
TTITLE10=Half Breed
TTITLE11=For The Love Of Him (Dance Mix)
EXTD=YEAR: 1999
EXTT0=
EXTT1=
EXTT2=
EXTT3=
EXTT4=
EXTT5=
EXTT6=
EXTT7=
EXTT8=
EXTT9=
EXTT10=
EXTT11=
PLAYORDER=
